<mxfile host="app.diagrams.net" modified="2023-09-19T23:21:03.206Z" agent="Mozilla/5.0 (Macintosh; Intel Mac OS X 10_15_7) AppleWebKit/605.1.15 (KHTML, like Gecko) Version/16.6 Safari/605.1.15" version="21.1.7" etag="Bkbmvl3lj6lTFV2c3thH" type="github">
  <diagram name="Page-1" id="IW3GTwa7vsEA0swwbsQx">
    <mxGraphModel>
      <root>
        <mxCell id="0" />
        <mxCell id="1" parent="0" />
      </root>
    </mxGraphModel>
  </diagram>
</mxfile>
